<svg width="48" height="48" viewBox="0 0 48 48" fill="none" xmlns="http://www.w3.org/2000/svg">
<g clip-path="url(#clip0_1_193)">
<path d="M24 48C10.766 48 0 37.234 0 24C0 10.766 10.766 0 24 0C37.234 0 48 10.766 48 24C48 37.234 37.234 48 24 48ZM24 6C14.076 6 6 14.074 6 24C6 33.926 14.076 42 24 42C33.924 42 42 33.926 42 24C42 14.074 33.926 6 24 6ZM32 22H26V12H20V28H32V22Z" fill="#B2FF00"/>
</g>
<defs>
<clipPath id="clip0_1_193">
<rect width="48" height="48" fill="white"/>
</clipPath>
</defs>
</svg>
