<svg width="48" height="48" viewBox="0 0 48 48" fill="none" xmlns="http://www.w3.org/2000/svg">
<path d="M46.3424 17.316C45.9024 17.098 43.4804 16 39.0004 16C33.7444 16 29.7283 20.412 28.1683 22.424C27.1963 22.164 26.1423 22 25.0003 22C23.0343 22 21.1863 22.498 19.5243 23.22C19.6923 21.41 19.6883 19.738 19.6763 18.292C19.6723 17.622 19.6663 16.94 19.6843 16.352L27.0003 14.262V11.16L30.0003 10.16V7.99805C30.0003 4.13405 26.3823 -0.00195312 21.0003 -0.00195312C16.4723 -0.00195312 13.8103 2.04005 13.0683 2.70005C-0.207651 12.986 -0.0716508 27.052 -0.00765081 33.822L0.000349196 35.946C0.322349 36.406 8.61635 48 24.0003 48C40.0523 48 47.6804 40.654 48.0004 40.378V18.146L46.3424 17.316ZM42.0004 37.448C39.6964 38.904 33.6623 41.998 24.0003 41.998C13.7083 41.998 7.74035 36.01 5.99235 33.952C5.93235 27.688 5.82035 15.844 16.8303 7.37605C16.8843 7.33005 18.4063 6.00005 21.0003 6.00005C21.6363 6.00005 22.1523 6.12405 22.5643 6.31605L21.0003 6.83805V9.73605L14.6543 11.55L14.1543 13.05C13.6443 14.578 13.6603 16.322 13.6783 18.342C13.7043 21.392 13.6043 25.368 11.6963 29.078L16.3063 32.918C16.3483 32.87 20.5303 27.998 25.0023 27.998C28.3824 27.998 30.5963 30.79 30.6183 30.818L35.4044 27.196C35.3424 27.112 34.7043 26.288 33.5723 25.32C34.8863 23.85 36.9984 21.996 39.0044 21.996C40.2524 21.996 41.2544 22.11 42.0044 22.242V37.446L42.0004 37.448Z" fill="#B2FF00"/>
</svg>
