<svg width="32" height="47" viewBox="0 0 32 47" fill="none" xmlns="http://www.w3.org/2000/svg">
<path d="M0 46.962V0L28.058 17.912C28.9924 18.5037 29.7619 19.3223 30.2945 20.2917C30.8271 21.261 31.1056 22.3494 31.104 23.4554C31.1024 24.5614 30.8208 25.649 30.2854 26.6168C29.7499 27.5846 28.9782 28.401 28.042 28.99L0 46.962ZM6 10.95V35.988L24.824 23.924C24.9104 23.8781 24.9823 23.8091 25.0317 23.7247C25.0812 23.6403 25.1062 23.5438 25.104 23.446C25.1073 23.3525 25.085 23.2599 25.0395 23.1781C24.9941 23.0963 24.9272 23.0285 24.846 22.982L6 10.95Z" fill="#B2FF00"/>
</svg>
