<svg width="48" height="48" viewBox="0 0 48 48" fill="none" xmlns="http://www.w3.org/2000/svg">
<g clip-path="url(#clip0_1_188)">
<path d="M24 14C18.486 14 14 18.486 14 24C14 29.514 18.486 34 24 34C29.514 34 34 29.514 34 24C34 18.486 29.514 14 24 14ZM24 28C21.794 28 20 26.206 20 24C20 21.794 21.794 20 24 20C26.206 20 28 21.794 28 24C28 26.206 26.206 28 24 28ZM43.776 21C42.472 12.37 35.632 5.528 27 4.224V0H21V4.224C12.368 5.528 5.528 12.37 4.224 21H0V27H4.224C5.528 35.63 12.368 42.472 21 43.776V48H27V43.776C35.632 42.472 42.472 35.632 43.776 27H48V21H43.776ZM24 38C16.28 38 10 31.718 10 24C10 16.282 16.28 10 24 10C31.72 10 38 16.282 38 24C38 31.718 31.72 38 24 38Z" fill="#B2FF00"/>
</g>
<defs>
<clipPath id="clip0_1_188">
<rect width="48" height="48" fill="white"/>
</clipPath>
</defs>
</svg>
