<svg width="42" height="48" viewBox="0 0 42 48" fill="none" xmlns="http://www.w3.org/2000/svg">
<path d="M42.0008 31.6819V48.0779H36.0008V36.3159L18.0008 31.6219V48.0799H12.0008L1.46883 39.2979C-0.263167 37.8539 -0.497167 35.2819 0.946833 33.5499C2.39083 31.8179 4.96283 31.5839 6.69483 33.0279L11.9748 37.4719V12.9999C11.9748 11.1779 13.5728 9.73592 15.4528 10.0419C16.9268 10.2819 17.9988 11.6659 17.9988 13.1619V25.4219L41.9988 31.6839L42.0008 31.6819ZM8.00083 23.8579V12.9219C8.00083 9.06192 11.1408 5.92192 15.0008 5.92192C18.8608 5.92192 22.0008 9.06192 22.0008 12.9219V23.8579C25.6028 21.5439 28.0008 17.5119 28.0008 12.9219C28.0008 5.75192 22.1688 -0.0800781 15.0008 -0.0800781C7.83283 -0.0800781 2.00083 5.75192 2.00083 12.9199C2.00083 17.5099 4.39883 21.5459 8.00083 23.8579Z" fill="#B2FF00"/>
</svg>
