<svg width="48" height="48" viewBox="0 0 48 48" fill="none" xmlns="http://www.w3.org/2000/svg">
<path d="M24 0C10.766 0 0 10.766 0 24C0 37.234 10.766 48 24 48C37.234 48 48 37.234 48 24C48 10.766 37.234 0 24 0ZM18 40.97V37C18 36.45 18.448 36 19 36H29C29.552 36 30 36.45 30 37V40.97C28.122 41.636 26.102 42 24 42C21.898 42 19.878 41.636 18 40.97ZM36 37.404V37C36 33.14 32.86 30 29 30H19C15.14 30 12 33.14 12 37V37.404C8.32 34.106 6 29.32 6 24C6 14.074 14.076 6 24 6C33.924 6 42 14.074 42 24C42 29.32 39.68 34.106 36 37.404ZM24 12C20.14 12 17 15.14 17 19C17 22.86 20.14 26 24 26C27.86 26 31 22.86 31 19C31 15.14 27.86 12 24 12Z" fill="#B2FF00"/>
</svg>
